# xmcd
#
# Track frame offsets:
#	183
#	15503
#	29083
#	46503
#	62870
#	78085
#	91603
#	105873
#	122433
#	139473
#
# Disc length: 2073 seconds
#
# Revision: 5
# Processed by: cddbd v1.5.1PL0 Copyright (c) Steve Scherf et al.
# Submitted via: dBpowerAMP V4.0
#
DISCID=6d08170a
DTITLE=Raça Negra - Banda Raça Negra
DYEAR=1993
DGENRE=pagode
TTITLE0=Tempo Perdido
TTITLE1=Sem Voce
TTITLE2=Estou Mal
TTITLE3=Não Quero Mais Sofrer
TTITLE4=Estrela Guia
TTITLE5=Jeito De Ser
TTITLE6=Não Vou Aceita
TTITLE7=Doce Paixão
TTITLE8=Ciume De Voce 
TTITLE9=Quando Te Encontrei
EXTD=
EXTT0=
EXTT1=
EXTT2=
EXTT3=
EXTT4=
EXTT5=
EXTT6=
EXTT7=
EXTT8=
EXTT9=
PLAYORDER=
